<svg xmlns="http://www.w3.org/2000/svg" viewBox="0 0 512 512">
  <rect width="512" height="512" rx="92" fill="#101310"/>
  <path d="M116 318c40-86 97-133 171-141 43-4 78 5 105 26-22 2-42 10-60 24-28 21-47 52-57 92-39-20-79-20-120 0-16 8-29 18-39 31z" fill="#35d58c"/>
  <path d="M108 370c25-37 57-63 96-79 55-23 111-17 168 18l31-42 29 88c-47 23-96 32-147 27-49-5-96 5-142 31l-35-43z" fill="#ff6b5f"/>
  <path d="M145 167h62v36h-62v64h-37v-64H65v-36h43v-49h37v49zm207-37h37v67h47v36h-47v63h-37v-63h-62v-36h62v-67z" fill="#f2d06b"/>
</svg>
